<svg xmlns="http://www.w3.org/2000/svg" enable-background="new 0 0 68 68" viewBox="0 0 68 68" id="microphone"><path fill="white" d="M36.041 5.99591c-4.76746 5.50433-4.55359 13.85657.66858 19.0788 2.65015 2.65002 6.17004 4.11005 9.92004 4.11005 3.40332 0 6.61658-1.22028 9.16565-3.43475L36.041 5.99591zM57.20884 24.33539c4.77686-5.49548 4.56287-13.84857-.66919-19.08069-2.65002-2.64996-6.16992-4.10999-9.91003-4.10999-3.41272 0-6.62695 1.22064-9.17639 3.43536L57.20884 24.33539z"></path><g><path fill="white" d="M42.2396,30.57471c-2.59998-0.72998-4.97998-2.13-6.93994-4.08997c-1.98999-1.98004-3.34009-4.39001-4.05005-6.94
			L11.43663,42.03571l8.32422,8.32428L42.2396,30.57471z M28.2396,31.3847l3.08008-3.07996
			c0.59998-0.60004,1.56995-0.60004,2.17993,0c0.59009,0.58997,0.6001,1.56995,0,2.16998l-3.08997,3.08997
			c-0.59998,0.60004-1.57996,0.59003-2.17004,0C27.62962,32.96472,27.62962,31.99475,28.2396,31.3847z"></path><path fill="white" d="M30.16539,45.4173L16.55406,59.02863c-0.76367,0.76367-2.0957,0.76367-2.85938,0l-3.32617-3.32568
			c-0.78809-0.78857-0.78809-2.07129,0-2.85986l0.77612-0.77612l1.745,1.73779c0.73813,0.75696,1.98105,0.84403,2.80994,0.13
			l2.55713-2.25079l-8.14453-8.14465l-2.24243,2.54541c-0.72009,0.79999-0.66016,2.03998,0.11987,2.83002l1.7395,1.73956
			l-0.77466,0.77472c-1.56738,1.56836-1.56738,4.11963,0,5.68799l3.32617,3.32568c1.56997,1.57199,4.11729,1.57223,5.6875,0
			l13.61133-13.61133c0.78906-0.78809,2.07227-0.78809,2.86133,0c0.78906,0.78906,0.78906,2.07275,0,2.86182L18.69273,65.44122
			l1.41406,1.41406l15.74805-15.74805c0.75977-0.75977,1.17871-1.77002,1.17871-2.84521c0-1.07471-0.41895-2.08496-1.17871-2.84473
			C34.28648,43.84894,31.73375,43.84894,30.16539,45.4173z"></path></g></svg>